<svg width="111" height="49" viewBox="0 0 111 49" fill="none" xmlns="http://www.w3.org/2000/svg">
<path d="M0 26.7742V15.7478H4.07521C4.88722 15.7478 5.55694 15.8806 6.08436 16.1462C6.61179 16.4082 7.00451 16.7618 7.26253 17.2069C7.52055 17.6483 7.64956 18.1383 7.64956 18.6767C7.64956 19.1505 7.56039 19.5417 7.38205 19.8504C7.20751 20.1591 6.97605 20.4032 6.68767 20.5826C6.40309 20.7621 6.09385 20.8949 5.75994 20.981V21.0887C6.11661 21.1102 6.47519 21.2287 6.83566 21.4441C7.19613 21.6594 7.49778 21.9681 7.74063 22.3701C7.98347 22.7721 8.10489 23.2638 8.10489 23.8453C8.10489 24.3981 7.97209 24.8952 7.70648 25.3367C7.44087 25.7782 7.02158 26.1281 6.44863 26.3865C5.87567 26.645 5.13006 26.7742 4.21181 26.7742H0ZM1.41153 25.5897H4.21181C5.13386 25.5897 5.7884 25.421 6.17543 25.0836C6.56625 24.7426 6.76167 24.3299 6.76167 23.8453C6.76167 23.472 6.66111 23.1274 6.46001 22.8116C6.2589 22.4921 5.97242 22.2373 5.60057 22.0471C5.22872 21.8532 4.78856 21.7563 4.28011 21.7563H1.41153V25.5897ZM1.41153 20.5934H4.02968C4.45466 20.5934 4.83789 20.5144 5.17939 20.3565C5.52468 20.1986 5.79788 19.976 5.99899 19.6889C6.20388 19.4017 6.30633 19.0643 6.30633 18.6767C6.30633 18.1921 6.128 17.7812 5.77132 17.4438C5.41464 17.1028 4.84928 16.9323 4.07521 16.9323H1.41153V20.5934Z" fill="#2F3138"/>
<path d="M13.9075 26.9465C13.0652 26.9465 12.3385 26.7706 11.7276 26.4189C11.1205 26.0635 10.6519 25.5682 10.3218 24.9329C9.99546 24.294 9.8323 23.551 9.8323 22.7039C9.8323 21.8568 9.99546 21.1102 10.3218 20.4642C10.6519 19.8145 11.111 19.3084 11.6992 18.9459C12.2911 18.5798 12.9817 18.3967 13.7709 18.3967C14.2262 18.3967 14.6759 18.4685 15.1198 18.6121C15.5638 18.7557 15.9679 18.989 16.3322 19.312C16.6964 19.6314 16.9867 20.055 17.203 20.5826C17.4193 21.1102 17.5274 21.7599 17.5274 22.5316V23.07H10.7885V21.9717H16.1614C16.1614 21.5051 16.0627 21.0887 15.8654 20.7226C15.6719 20.3565 15.3949 20.0676 15.0345 19.8558C14.6778 19.644 14.2566 19.5381 13.7709 19.5381C13.2359 19.5381 12.773 19.6638 12.3822 19.915C11.9951 20.1627 11.6973 20.4857 11.4886 20.8841C11.2799 21.2825 11.1755 21.7097 11.1755 22.1655V22.8977C11.1755 23.5223 11.2894 24.0517 11.517 24.486C11.7485 24.9167 12.0691 25.2451 12.4789 25.4713C12.8887 25.6938 13.3649 25.8051 13.9075 25.8051C14.2604 25.8051 14.5791 25.7584 14.8637 25.6651C15.1521 25.5682 15.4006 25.4246 15.6093 25.2344C15.818 25.0406 15.9793 24.8001 16.0931 24.5129L17.3908 24.8575C17.2542 25.2739 17.0246 25.64 16.7021 25.9558C16.3796 26.2681 15.9812 26.5122 15.5069 26.6881C15.0326 26.8603 14.4994 26.9465 13.9075 26.9465Z" fill="#2F3138"/>
<path d="M44.0571 24.4057C44.1589 25.607 42.7597 26.0338 41.2825 25.5081C41.6221 28.1938 40.2638 28.5541 38.7558 28.1938L31.6587 25.7276C31.2273 25.6002 31.0645 25.4218 30.7997 25.1192L27.9231 21.9905C27.4886 21.4839 27.1488 21.385 26.7855 21.3055L23.7153 20.6939C22.1566 19.0723 22.2925 16.575 24.021 15.1123L41.4544 15.7749C42.5716 15.8832 43.8656 16.5299 44.0626 17.8872L44.0571 24.4057Z" fill="#2F3138"/>
<path d="M30.8584 25.1154L27.9819 21.9893C27.5467 21.4814 27.2072 21.3821 26.8463 21.3023L23.7758 20.6907C22.2168 19.071 22.3526 16.5718 24.0796 15.1091L41.5165 15.7727C42.6344 15.8789 43.9277 16.5258 44.1258 17.8824L44.1205 24.4012C44.2231 25.6025 42.822 26.0306 41.3466 25.5029C41.6863 28.1909 40.3275 28.5493 38.8203 28.1909L31.7197 25.7254C31.3588 25.58 31.1026 25.3528 30.86 25.1147L30.8584 25.1154Z" fill="#2F3138" stroke="white" stroke-width="0.5" stroke-miterlimit="10" stroke-linecap="round" stroke-linejoin="round"/>
<path d="M40.5619 19.3069C40.5619 20.6009 38.9002 20.6908 36.8457 20.6908C37.0155 21.9751 38.7712 24.0968 41.2972 25.4875" fill="#2F3138"/>
<path d="M40.5619 19.3069C40.5619 20.6009 38.9002 20.6908 36.8457 20.6908C37.0155 21.9751 38.7712 24.0968 41.2972 25.4875" stroke="white" stroke-width="0.5" stroke-miterlimit="10" stroke-linecap="round" stroke-linejoin="round"/>
<path d="M44.4776 24.4052C44.3757 25.6065 45.775 26.0333 47.2522 25.5076C46.9125 28.1933 48.2709 28.5536 49.7788 28.1933L56.8759 25.7271C57.3074 25.5997 57.4702 25.4213 57.735 25.1187L60.6115 21.99C61.0461 21.4834 61.3859 21.3845 61.7492 21.305L64.8193 20.6934C66.3781 19.0718 66.2422 16.5745 64.5137 15.1118L47.0803 15.7744C45.963 15.8827 44.6691 16.5294 44.472 17.8867L44.4776 24.4052Z" fill="#2F3138"/>
<path d="M57.6762 25.1154L60.5528 21.9893C60.988 21.4814 61.3275 21.3821 61.6884 21.3023L64.7588 20.6907C66.3179 19.071 66.182 16.5718 64.4551 15.1091L47.0182 15.7727C45.9002 15.8789 44.607 16.5258 44.4089 17.8824L44.4142 24.4012C44.3116 25.6025 45.7126 26.0306 47.1881 25.5029C46.8484 28.1909 48.2072 28.5493 49.7144 28.1909L56.815 25.7254C57.1759 25.58 57.432 25.3528 57.6747 25.1147L57.6762 25.1154Z" fill="#2F3138" stroke="white" stroke-width="0.5" stroke-miterlimit="10" stroke-linecap="round" stroke-linejoin="round"/>
<path d="M47.9727 19.3069C47.9727 20.6009 49.6345 20.6908 51.689 20.6908C51.5191 21.9751 49.7634 24.0968 47.2374 25.4875" fill="#2F3138"/>
<path d="M47.9727 19.3069C47.9727 20.6009 49.6345 20.6908 51.689 20.6908C51.5191 21.9751 49.7634 24.0968 47.2374 25.4875" stroke="white" stroke-width="0.5" stroke-miterlimit="10" stroke-linecap="round" stroke-linejoin="round"/>
<path d="M40.2603 1L44.2055 13.129L46.6713 1H40.2603Z" fill="#2F3138" stroke="white" stroke-width="0.5" stroke-linejoin="round"/>
<path d="M32.2466 10.3572L40.1169 13.3464L35.3394 7.06454L32.2466 10.3572Z" fill="#2F3138" stroke="white" stroke-width="0.5" stroke-linejoin="round"/>
<path d="M55.7314 10.3572L47.8611 13.3464L52.6386 7.06454L55.7314 10.3572Z" fill="#2F3138" stroke="white" stroke-width="0.5" stroke-linejoin="round"/>
<path d="M0 32.2361H9.39504C10.9296 32.2361 12.057 32.5903 12.7773 33.2986C13.4975 33.9912 13.8577 35.0537 13.8577 36.4861C13.8577 37.4306 13.6541 38.2019 13.247 38.8C12.8399 39.3824 12.3388 39.7917 11.7438 40.0278C13.0121 40.3741 13.8733 41.2241 14.3274 42.5778C14.484 43.0657 14.5623 43.6324 14.5623 44.2778C14.5623 45.8204 14.2022 46.9537 13.4819 47.6778C12.7616 48.4019 11.6342 48.7639 10.0997 48.7639H0V32.2361ZM10.3345 43.5694C10.3345 42.625 9.86479 42.1528 8.92529 42.1528H4.22777V45.4583H8.92529C9.86479 45.4583 10.3345 44.9861 10.3345 44.0417V43.5694ZM9.62992 36.9583C9.62992 36.0139 9.16016 35.5417 8.22066 35.5417H4.22777V38.8472H8.22066C9.16016 38.8472 9.62992 38.375 9.62992 37.4306V36.9583Z" fill="#EB5F1A"/>
<path d="M27.4796 36.7222C27.4796 35.7778 27.0098 35.3056 26.0703 35.3056H22.0774C21.1379 35.3056 20.6682 35.7778 20.6682 36.7222V44.2778C20.6682 45.2222 21.1379 45.6944 22.0774 45.6944H26.0703C27.0098 45.6944 27.4796 45.2222 27.4796 44.2778V36.7222ZM31.7073 44.2778C31.7073 45.9306 31.3315 47.1347 30.5799 47.8903C29.844 48.6301 28.654 49 27.0098 49H21.1379C19.4938 49 18.2959 48.6301 17.5443 47.8903C16.8084 47.1347 16.4404 45.9306 16.4404 44.2778V36.7222C16.4404 35.0694 16.8084 33.8731 17.5443 33.1333C18.2959 32.3778 19.4938 32 21.1379 32H27.0098C28.654 32 29.844 32.3778 30.5799 33.1333C31.3315 33.8731 31.7073 35.0694 31.7073 36.7222V44.2778Z" fill="#EB5F1A"/>
<path d="M44.8714 36.7222C44.8714 35.7778 44.4017 35.3056 43.4622 35.3056H39.4693C38.5298 35.3056 38.06 35.7778 38.06 36.7222V44.2778C38.06 45.2222 38.5298 45.6944 39.4693 45.6944H43.4622C44.4017 45.6944 44.8714 45.2222 44.8714 44.2778V36.7222ZM49.0992 44.2778C49.0992 45.9306 48.7234 47.1347 47.9718 47.8903C47.2358 48.6301 46.0458 49 44.4017 49H38.5298C36.8856 49 35.6878 48.6301 34.9361 47.8903C34.2002 47.1347 33.8322 45.9306 33.8322 44.2778V36.7222C33.8322 35.0694 34.2002 33.8731 34.9361 33.1333C35.6878 32.3778 36.8856 32 38.5298 32H44.4017C46.0458 32 47.2358 32.3778 47.9718 33.1333C48.7234 33.8731 49.0992 35.0694 49.0992 36.7222V44.2778Z" fill="#EB5F1A"/>
<path d="M51.2006 45.3403C55.491 45.5764 58.3956 45.6944 59.9145 45.6944C60.2746 45.6944 60.5565 45.5921 60.76 45.3875C60.9792 45.1671 61.0889 44.8759 61.0889 44.5139V42.3889H55.6867C54.0426 42.3889 52.8447 42.019 52.0931 41.2792C51.3572 40.5236 50.9892 39.3194 50.9892 37.6667V36.9583C50.9892 35.3056 51.3572 34.1093 52.0931 33.3694C52.8447 32.6139 54.0426 32.2361 55.6867 32.2361H63.9309V35.5417H56.6262C55.6867 35.5417 55.217 36.0139 55.217 36.9583V37.4306C55.217 38.375 55.6867 38.8472 56.6262 38.8472H60.854C62.3885 38.8472 63.5159 39.2093 64.2362 39.9333C64.9565 40.6574 65.3166 41.7907 65.3166 43.3333V44.5139C65.3166 46.0565 64.9565 47.1898 64.2362 47.9139C63.5159 48.638 62.3885 49 60.854 49C60.0554 49 59.2098 48.9843 58.3173 48.9528L56.1565 48.8583C54.5593 48.7796 52.9073 48.6694 51.2006 48.5278V45.3403Z" fill="#EB5F1A"/>
<path d="M74.4795 48.7639H70.2518V35.5417H65.3194V32.2361H79.4119V35.5417H74.4795V48.7639Z" fill="#EB5F1A"/>
<path d="M94.3293 48.7639H81.2937V32.2361H94.3293V35.5417H85.5215V38.7292H92.4503V42.0347H85.5215V45.4583H94.3293V48.7639Z" fill="#EB5F1A"/>
<path d="M105.598 32.2361C107.367 32.2361 108.706 32.7005 109.614 33.6292C110.538 34.5421 111 35.888 111 37.6667V43.3333C111 45.112 110.538 46.4657 109.614 47.3944C108.706 48.3074 107.367 48.7639 105.598 48.7639H96.4377V32.2361H105.598ZM106.772 37.6667C106.772 36.25 106.068 35.5417 104.658 35.5417H100.665V45.4583H104.658C106.068 45.4583 106.772 44.75 106.772 43.3333V37.6667Z" fill="#EB5F1A"/>
</svg>
