<svg width="351" height="287" viewBox="0 0 351 287" fill="none" xmlns="http://www.w3.org/2000/svg">
<path d="M163.611 108.394C163.324 107.435 162.65 106.531 161.745 106.158C161.522 106.051 161.278 105.987 161.034 105.974C158.413 105.742 156.432 109.585 157.315 111.77C158.001 113.454 160.343 114.071 161.913 113.154C163.478 112.237 164.126 110.125 163.611 108.394V108.394ZM163.611 108.394C163.324 107.435 162.65 106.531 161.745 106.158C161.522 106.051 161.278 105.987 161.034 105.974C158.413 105.742 156.432 109.585 157.315 111.77C158.001 113.454 160.343 114.071 161.913 113.154C163.478 112.237 164.126 110.125 163.611 108.394V108.394ZM163.611 108.394C163.324 107.435 162.65 106.531 161.745 106.158C161.522 106.051 161.278 105.987 161.034 105.974C158.413 105.742 156.432 109.585 157.315 111.77C158.001 113.454 160.343 114.071 161.913 113.154C163.478 112.237 164.126 110.125 163.611 108.394V108.394ZM163.611 108.394C163.324 107.435 162.65 106.531 161.745 106.158C161.522 106.051 161.278 105.987 161.034 105.974C158.413 105.742 156.432 109.585 157.315 111.77C158.001 113.454 160.343 114.071 161.913 113.154C163.478 112.237 164.126 110.125 163.611 108.394V108.394ZM163.611 108.394C163.324 107.435 162.65 106.531 161.745 106.158C161.522 106.051 161.278 105.987 161.034 105.974C158.413 105.742 156.432 109.585 157.315 111.77C158.001 113.454 160.343 114.071 161.913 113.154C163.478 112.237 164.126 110.125 163.611 108.394V108.394ZM163.611 108.394C163.324 107.435 162.65 106.531 161.745 106.158C161.522 106.051 161.278 105.987 161.034 105.974C158.413 105.742 156.432 109.585 157.315 111.77C158.001 113.454 160.343 114.071 161.913 113.154C163.478 112.237 164.126 110.125 163.611 108.394V108.394ZM163.611 108.394C163.324 107.435 162.65 106.531 161.745 106.158C161.522 106.051 161.278 105.987 161.034 105.974C158.413 105.742 156.432 109.585 157.315 111.77C158.001 113.454 160.343 114.071 161.913 113.154C163.478 112.237 164.126 110.125 163.611 108.394V108.394ZM166.721 212.853C166.292 212.168 165.708 211.534 164.945 211.277C163.753 210.874 162.976 211.277 162.496 212.103C161.458 213.903 161.861 217.669 162.47 218.924C162.964 219.957 163.946 220.98 165.074 220.783C165.76 220.655 166.292 220.098 166.669 219.507C167.921 217.54 167.952 214.845 166.721 212.853V212.853ZM163.611 108.394C163.324 107.435 162.65 106.531 161.745 106.158C161.522 106.051 161.278 105.987 161.034 105.974C158.413 105.742 156.432 109.585 157.315 111.77C158.001 113.454 160.343 114.071 161.913 113.154C163.478 112.237 164.126 110.125 163.611 108.394V108.394ZM166.721 212.853C166.292 212.168 165.708 211.534 164.945 211.277C163.753 210.874 162.976 211.277 162.496 212.103C161.458 213.903 161.861 217.669 162.47 218.924C162.964 219.957 163.946 220.98 165.074 220.783C165.76 220.655 166.292 220.098 166.669 219.507C167.921 217.54 167.952 214.845 166.721 212.853V212.853ZM350.423 174.865C346.533 155.637 338.62 137.442 327.207 121.47C315.795 105.494 301.135 92.1014 284.19 82.1619C294.299 84.2526 304.266 86.9903 314.023 90.3491C314.521 90.5591 315.074 90.5891 315.593 90.4348C316.108 90.2849 316.554 89.9593 316.858 89.518C317.163 89.0724 317.304 88.5369 317.261 88.0014C317.214 87.4658 316.987 86.9646 316.609 86.579C304.377 72.6809 272.803 43.9464 214.126 33.4756C221.739 28.4845 230.428 25.3527 239.486 24.3459C240.22 24.2688 240.902 23.9474 241.425 23.4248C241.944 22.9021 242.265 22.2209 242.338 21.4883C242.407 20.7557 242.223 20.0188 241.811 19.4104C241.399 18.802 240.79 18.3522 240.082 18.1423C220.688 11.7887 180.063 4.49262 127.799 28.0646C127.799 28.0646 128.446 16.6513 143.762 3.8457C144.127 3.58864 144.384 3.21163 144.491 2.77892C144.594 2.34621 144.538 1.88779 144.332 1.49364C144.127 1.09949 143.784 0.795307 143.367 0.632506C142.951 0.473988 142.488 0.469704 142.072 0.619653C101.113 13.3739 66.7847 41.6286 46.4467 79.33C45.1557 72.0597 44.8384 64.6522 45.5031 57.2961C45.546 56.6406 45.3702 55.9894 45.0056 55.441C44.6411 54.8926 44.1007 54.4856 43.4745 54.2757C42.8526 54.0658 42.1749 54.0658 41.5531 54.28C40.9269 54.4985 40.395 54.9098 40.0305 55.4624C27.2538 75.3114 4.82712 122.558 28.7421 185.935C19.4995 177.675 11.2519 168.365 4.17949 158.19C3.95218 157.783 3.58333 157.471 3.14158 157.312C2.70411 157.158 2.21946 157.162 1.78199 157.334C1.34881 157.501 0.988543 157.822 0.769809 158.233C0.551075 158.649 0.49103 159.129 0.598253 159.583C5.02441 182.409 20.4902 237.149 70.2158 263.802C69.9671 263.952 126.358 293.479 216.112 284.94C216.112 284.94 305.621 273.625 309.7 222.66C311.75 233.229 311.343 244.133 308.503 254.522C308.358 255.147 308.418 255.803 308.675 256.39C308.932 256.981 309.374 257.474 309.932 257.791C310.493 258.108 311.141 258.236 311.78 258.159C312.419 258.078 313.015 257.795 313.479 257.35C326.903 241.866 345.65 210.253 330.883 164.244C336.411 167.706 341.331 172.05 345.452 177.101C345.851 177.572 346.387 177.898 346.992 178.035C347.593 178.172 348.223 178.112 348.785 177.859C349.347 177.607 349.81 177.178 350.106 176.638C350.402 176.099 350.513 175.477 350.423 174.865V174.865ZM183.662 61.5118C184.764 54.8112 191.759 51.628 197.824 55.1068C201.98 57.4889 204.416 62.0688 205.788 66.6615C205.998 67.3598 206.191 68.0582 206.359 68.7693C208.173 76.194 207.718 83.9313 208.147 91.4973C208.353 95.0447 208.872 98.652 209.64 102.118C210.013 103.853 213.328 113.943 215.546 107.516C217.784 101.034 216.155 93.4124 215.014 86.8918C213.821 80.0498 212.539 72.7666 215.104 66.066C216.412 62.6514 219.457 59.2626 223.098 59.7681C226.143 60.1794 228.138 63.0927 229.459 65.8603C232.903 73.0665 234.447 81.0223 235.678 88.9268C237.646 101.591 238.839 114.774 235.094 127.022C233.709 131.525 231.582 135.959 228.022 139.053C225.041 141.627 221.207 143.114 217.295 143.645C213.616 144.138 209.756 143.812 206.397 142.236C200.736 139.558 197.228 133.749 194.907 127.939L194.894 127.965C189.816 115.249 188.873 101.33 186.291 87.89C184.635 79.2615 182.212 70.346 183.662 61.5118V61.5118ZM74.805 122.288C75.1438 121.213 75.5298 120.155 75.8815 119.092C77.5627 114.071 79.5871 109.183 81.916 104.449C91.2315 85.5594 105.818 67.5526 124.809 57.7759C132.195 53.9715 140.292 51.0582 148.596 50.1928C153.802 49.6487 160.656 49.2117 165.528 51.8508C172.755 55.7538 170.461 64.875 168.196 71.3056C166.202 76.9437 162.247 78.7045 156.629 79.6214C150.616 80.6067 144.448 79.2358 138.491 80.6582C126.727 83.4643 118.5 98.3307 120.615 109.932C121.897 116.959 123.437 123.929 124.629 130.968C126.246 140.462 128.88 152.689 123.476 161.434C122.583 162.869 121.378 164.201 119.77 164.707C118.539 165.092 117.192 164.951 115.936 164.642C101.945 161.189 104.523 145.47 104.549 134.64C104.561 130.009 104.965 124.006 103.202 119.623C101.426 115.211 98.5655 118.081 97.2446 120.943C95.3403 125.043 93.6805 129.259 92.1793 133.53C91.283 136.105 91.1929 139.622 89.1471 141.627C86.1406 144.562 81.6329 141.795 79.081 139.584V139.597C77.1381 137.913 75.3111 136.002 74.3246 133.633C72.7463 129.79 73.5998 126.011 74.805 122.288V122.288ZM130.355 194.148C129.579 197.306 126.392 198.625 123.617 199.636C122.596 199.996 121.52 200.266 120.43 200.189C119.757 200.138 119.097 199.983 118.462 199.778C117.128 199.362 115.755 199.105 114.396 198.741C114.357 198.741 113.735 198.57 113.735 198.527C113.525 201.333 112.839 203.929 111.69 206.311C110.536 208.689 109.069 210.617 107.285 212.078C104.6 214.293 101.726 215.12 98.6299 214.575C95.5333 214.031 92.8141 212.326 90.4552 209.464C86.9555 205.223 85.7803 200.347 86.9169 194.846C87.2943 193.013 85.9476 190.759 84.0047 189.842C81.4142 188.613 79.274 186.981 77.5885 184.95C74.7535 181.522 73.3682 177.838 73.4583 173.905C73.5483 169.972 75.0923 166.776 78.1203 164.317C80.8052 162.106 83.7559 161.228 86.9812 161.665C90.2064 162.106 93.02 163.773 95.4046 166.673C98.3983 170.293 99.6249 174.629 99.1102 179.672L105.299 181.33C105.17 179.882 104.836 178.236 104.278 176.428C103.862 175.066 104.055 173.777 104.9 173.074L106.766 171.536C108.657 169.985 112.217 172.08 112.749 175.066C113.062 176.814 113.307 178.511 113.487 180.164C113.697 182.092 115.237 183.982 117.089 184.474L125.77 186.788L125.757 186.801C128.644 187.563 131.08 191.201 130.355 194.148V194.148ZM183.392 233.85C181.758 237.398 178.923 240.602 175.294 242.183C171.76 243.734 167.51 242.714 164.246 245.054C161.655 246.917 160.682 250.306 160.343 253.477C160.008 256.647 160.099 259.946 158.893 262.893C157.688 265.841 154.66 268.403 151.538 267.73C149.166 267.229 147.545 265.078 146.25 263.035C142.806 257.602 140.108 251.741 137.702 245.778C134.875 238.807 132.426 231.614 131.324 224.164C130.226 216.709 130.509 208.95 133.036 201.86C133.919 199.414 135.291 196.839 137.74 195.999C141.094 194.846 144.62 197.588 146.25 200.733C151.045 195.275 157.847 191.329 165.112 191.008C170.761 190.759 175.646 192.559 179.206 196.076H179.18C181.123 197.991 182.68 200.425 183.743 203.308C187.277 212.883 187.706 224.459 183.392 233.85V233.85ZM171.992 155.303C168.029 146.49 165.37 144.292 163.169 146.053C160.969 147.81 161.188 156.091 162.067 164.938C162.951 173.789 160.969 184.796 152.366 182.157C152.366 182.157 145.525 181.938 141.999 155.521C138.478 129.092 136.055 107.293 147.185 96.9469C158.323 86.5961 174.634 92.547 177.511 105.974C180.372 119.401 176.173 126.234 173.973 127.991C173.973 127.991 189.194 148.251 193.599 154.189C198.004 160.14 197.562 170.927 191.399 173.567C185.219 176.219 175.955 164.098 171.992 155.303V155.303ZM204.197 261.638C190.515 261.857 186.994 187.435 198.459 177.307C209.923 167.179 215.443 185.014 215.443 185.014C219.624 201.521 217.866 261.42 204.197 261.638ZM215.867 167.084C212.346 169.248 200.659 169.985 202.203 160.075C203.742 150.166 212.346 150.826 212.346 150.826V150.839C219.611 152.599 219.393 164.925 215.867 167.084V167.084ZM255.094 200.656L255.081 200.669C270.967 201.547 272.725 212.558 273.609 217.939C274.488 223.32 270.07 243.606 246.7 238.987C223.33 234.356 221.336 190.541 226.414 170.062C231.492 149.583 252.662 148.045 265.005 149.583C277.353 151.121 277.572 161.031 277.572 161.031C276.688 169.844 269.642 176.219 263.243 172.041C256.856 167.851 247.155 169.389 244.937 176C242.737 182.598 239.212 199.778 255.094 200.656V200.656ZM277.392 137.227C276.071 142.082 272.314 145.158 257.984 143.851V143.838C243.655 142.531 237.53 109.907 248.06 98.742C252.7 93.8408 259.151 92.6241 265.396 94.929C268.346 96.0129 271.263 97.581 273.36 99.9716C277.22 104.397 277.353 110.657 271.795 113.66C270.409 114.41 268.827 114.812 267.338 114.178C266.095 113.66 264.954 112.987 263.388 112.674C258.529 111.706 259.125 118.291 259.524 119.958C260.266 123.077 260.185 127.785 268.968 126.817C274.008 126.26 278.687 132.468 277.392 137.227ZM164.945 211.277C163.753 210.874 162.976 211.277 162.496 212.103C161.458 213.903 161.861 217.669 162.47 218.924C162.964 219.957 163.946 220.98 165.074 220.783C165.76 220.655 166.292 220.098 166.669 219.507C167.921 217.54 167.952 214.845 166.721 212.853C166.292 212.168 165.708 211.534 164.945 211.277V211.277ZM161.745 106.158C161.522 106.051 161.278 105.987 161.034 105.974C158.413 105.742 156.432 109.585 157.315 111.77C158.001 113.454 160.343 114.071 161.913 113.154C163.478 112.237 164.126 110.125 163.611 108.394C163.324 107.435 162.65 106.531 161.745 106.158V106.158ZM98.2138 197.254C98.3039 197.991 98.6685 198.741 99.2904 199.503C99.9766 200.335 100.766 200.849 101.649 201.033C102.528 201.213 103.305 201.033 103.978 200.476C104.862 199.765 105.355 198.368 105.484 196.282L98.4111 194.448C98.1881 195.571 98.1238 196.504 98.2138 197.254V197.254ZM90.3523 170.94C89.5074 170.76 88.7568 170.94 88.1092 171.472C87.4744 172.003 87.1656 172.714 87.1913 173.644C87.2042 174.578 87.5387 175.43 88.1992 176.231C89.1986 177.448 90.8584 178.185 93.1744 178.472C94.3538 176.309 94.1866 174.316 92.6554 172.47C91.9692 171.626 91.2058 171.125 90.3523 170.94V170.94ZM163.611 108.394C163.324 107.435 162.65 106.531 161.745 106.158C161.522 106.051 161.278 105.987 161.034 105.974C158.413 105.742 156.432 109.585 157.315 111.77C158.001 113.454 160.343 114.071 161.913 113.154C163.478 112.237 164.126 110.125 163.611 108.394V108.394ZM163.611 108.394C163.324 107.435 162.65 106.531 161.745 106.158C161.522 106.051 161.278 105.987 161.034 105.974C158.413 105.742 156.432 109.585 157.315 111.77C158.001 113.454 160.343 114.071 161.913 113.154C163.478 112.237 164.126 110.125 163.611 108.394V108.394ZM163.611 108.394C163.324 107.435 162.65 106.531 161.745 106.158C161.522 106.051 161.278 105.987 161.034 105.974C158.413 105.742 156.432 109.585 157.315 111.77C158.001 113.454 160.343 114.071 161.913 113.154C163.478 112.237 164.126 110.125 163.611 108.394V108.394ZM163.611 108.394C163.324 107.435 162.65 106.531 161.745 106.158C161.522 106.051 161.278 105.987 161.034 105.974C158.413 105.742 156.432 109.585 157.315 111.77C158.001 113.454 160.343 114.071 161.913 113.154C163.478 112.237 164.126 110.125 163.611 108.394V108.394ZM163.611 108.394C163.324 107.435 162.65 106.531 161.745 106.158C161.522 106.051 161.278 105.987 161.034 105.974C158.413 105.742 156.432 109.585 157.315 111.77C158.001 113.454 160.343 114.071 161.913 113.154C163.478 112.237 164.126 110.125 163.611 108.394V108.394ZM163.611 108.394C163.324 107.435 162.65 106.531 161.745 106.158C161.522 106.051 161.278 105.987 161.034 105.974C158.413 105.742 156.432 109.585 157.315 111.77C158.001 113.454 160.343 114.071 161.913 113.154C163.478 112.237 164.126 110.125 163.611 108.394V108.394Z" fill="#FA7233"/>
</svg>
